<mxfile host="Electron" modified="2024-07-12T02:15:45.075Z" agent="Mozilla/5.0 (Windows NT 10.0; Win64; x64) AppleWebKit/537.36 (KHTML, like Gecko) draw.io/24.6.4 Chrome/124.0.6367.207 Electron/30.0.6 Safari/537.36" etag="1ggiv4qmS5sDN2hMcFlx" version="24.6.4" type="device">
  <diagram name="Page-1" id="OlFqhklidXQN-7i3jdO6">
    <mxGraphModel dx="1036" dy="606" grid="1" gridSize="10" guides="1" tooltips="1" connect="1" arrows="1" fold="1" page="1" pageScale="1" pageWidth="850" pageHeight="1100" math="0" shadow="0">
      <root>
        <mxCell id="0" />
        <mxCell id="1" parent="0" />
        <mxCell id="ycgrEBT8ILys-wkcXEi8-34" value="" style="rounded=0;whiteSpace=wrap;html=1;rotation=-89;" vertex="1" parent="1">
          <mxGeometry x="273.27" y="158.48" width="571.02" height="313.71" as="geometry" />
        </mxCell>
        <mxCell id="ycgrEBT8ILys-wkcXEi8-35" value="&lt;font style=&quot;font-size: 14px;&quot;&gt;&lt;b&gt;Pet Resort Use Case Diagram&lt;/b&gt;&lt;/font&gt;" style="text;html=1;align=center;verticalAlign=middle;whiteSpace=wrap;rounded=0;" vertex="1" parent="1">
          <mxGeometry x="438.78" y="30" width="240" height="30" as="geometry" />
        </mxCell>
        <mxCell id="ycgrEBT8ILys-wkcXEi8-36" style="edgeStyle=none;rounded=0;orthogonalLoop=1;jettySize=auto;html=1;exitX=0.5;exitY=0.5;exitDx=0;exitDy=0;exitPerimeter=0;entryX=0;entryY=0.5;entryDx=0;entryDy=0;" edge="1" parent="1" source="ycgrEBT8ILys-wkcXEi8-39" target="ycgrEBT8ILys-wkcXEi8-62">
          <mxGeometry relative="1" as="geometry" />
        </mxCell>
        <mxCell id="ycgrEBT8ILys-wkcXEi8-37" style="edgeStyle=none;rounded=0;orthogonalLoop=1;jettySize=auto;html=1;exitX=0.5;exitY=0.5;exitDx=0;exitDy=0;exitPerimeter=0;" edge="1" parent="1" source="ycgrEBT8ILys-wkcXEi8-39">
          <mxGeometry relative="1" as="geometry">
            <mxPoint x="421.87" y="240" as="targetPoint" />
          </mxGeometry>
        </mxCell>
        <mxCell id="ycgrEBT8ILys-wkcXEi8-38" style="edgeStyle=none;rounded=0;orthogonalLoop=1;jettySize=auto;html=1;exitX=0.5;exitY=0.5;exitDx=0;exitDy=0;exitPerimeter=0;entryX=0;entryY=0.5;entryDx=0;entryDy=0;" edge="1" parent="1" source="ycgrEBT8ILys-wkcXEi8-39" target="ycgrEBT8ILys-wkcXEi8-59">
          <mxGeometry relative="1" as="geometry" />
        </mxCell>
        <mxCell id="ycgrEBT8ILys-wkcXEi8-39" value="Staff" style="shape=umlActor;verticalLabelPosition=bottom;verticalAlign=top;html=1;outlineConnect=0;" vertex="1" parent="1">
          <mxGeometry x="104.37" y="40" width="70" height="130" as="geometry" />
        </mxCell>
        <mxCell id="ycgrEBT8ILys-wkcXEi8-40" style="edgeStyle=none;rounded=0;orthogonalLoop=1;jettySize=auto;html=1;exitX=0.5;exitY=0.5;exitDx=0;exitDy=0;exitPerimeter=0;entryX=0;entryY=0.5;entryDx=0;entryDy=0;" edge="1" parent="1" source="ycgrEBT8ILys-wkcXEi8-44" target="ycgrEBT8ILys-wkcXEi8-62">
          <mxGeometry relative="1" as="geometry" />
        </mxCell>
        <mxCell id="ycgrEBT8ILys-wkcXEi8-41" style="edgeStyle=none;rounded=0;orthogonalLoop=1;jettySize=auto;html=1;exitX=0.5;exitY=0.5;exitDx=0;exitDy=0;exitPerimeter=0;entryX=0;entryY=0.5;entryDx=0;entryDy=0;" edge="1" parent="1" source="ycgrEBT8ILys-wkcXEi8-44" target="ycgrEBT8ILys-wkcXEi8-64">
          <mxGeometry relative="1" as="geometry" />
        </mxCell>
        <mxCell id="ycgrEBT8ILys-wkcXEi8-42" style="edgeStyle=none;rounded=0;orthogonalLoop=1;jettySize=auto;html=1;exitX=0.5;exitY=0.5;exitDx=0;exitDy=0;exitPerimeter=0;entryX=0;entryY=0.5;entryDx=0;entryDy=0;" edge="1" parent="1" source="ycgrEBT8ILys-wkcXEi8-44" target="ycgrEBT8ILys-wkcXEi8-61">
          <mxGeometry relative="1" as="geometry" />
        </mxCell>
        <mxCell id="ycgrEBT8ILys-wkcXEi8-43" style="edgeStyle=none;rounded=0;orthogonalLoop=1;jettySize=auto;html=1;exitX=0.5;exitY=0.5;exitDx=0;exitDy=0;exitPerimeter=0;entryX=0;entryY=0.5;entryDx=0;entryDy=0;" edge="1" parent="1" source="ycgrEBT8ILys-wkcXEi8-44" target="ycgrEBT8ILys-wkcXEi8-56">
          <mxGeometry relative="1" as="geometry" />
        </mxCell>
        <mxCell id="ycgrEBT8ILys-wkcXEi8-44" value="Admin" style="shape=umlActor;verticalLabelPosition=bottom;verticalAlign=top;html=1;outlineConnect=0;" vertex="1" parent="1">
          <mxGeometry x="100" y="390" width="78.75" height="126.8" as="geometry" />
        </mxCell>
        <mxCell id="ycgrEBT8ILys-wkcXEi8-45" style="edgeStyle=none;rounded=0;orthogonalLoop=1;jettySize=auto;html=1;exitX=0.5;exitY=0.5;exitDx=0;exitDy=0;exitPerimeter=0;entryX=0;entryY=0.5;entryDx=0;entryDy=0;" edge="1" parent="1" source="ycgrEBT8ILys-wkcXEi8-48" target="ycgrEBT8ILys-wkcXEi8-56">
          <mxGeometry relative="1" as="geometry" />
        </mxCell>
        <mxCell id="ycgrEBT8ILys-wkcXEi8-46" style="edgeStyle=none;rounded=0;orthogonalLoop=1;jettySize=auto;html=1;exitX=0.5;exitY=0.5;exitDx=0;exitDy=0;exitPerimeter=0;entryX=0;entryY=0.5;entryDx=0;entryDy=0;fillColor=#FF2B0A;" edge="1" parent="1" source="ycgrEBT8ILys-wkcXEi8-48" target="ycgrEBT8ILys-wkcXEi8-60">
          <mxGeometry relative="1" as="geometry" />
        </mxCell>
        <mxCell id="ycgrEBT8ILys-wkcXEi8-47" style="edgeStyle=none;rounded=0;orthogonalLoop=1;jettySize=auto;html=1;exitX=0.5;exitY=0.5;exitDx=0;exitDy=0;exitPerimeter=0;entryX=0;entryY=0.5;entryDx=0;entryDy=0;" edge="1" parent="1" source="ycgrEBT8ILys-wkcXEi8-48" target="ycgrEBT8ILys-wkcXEi8-58">
          <mxGeometry relative="1" as="geometry" />
        </mxCell>
        <mxCell id="ycgrEBT8ILys-wkcXEi8-48" value="Client" style="shape=umlActor;verticalLabelPosition=bottom;verticalAlign=top;html=1;outlineConnect=0;" vertex="1" parent="1">
          <mxGeometry x="106.87" y="225" width="65" height="125" as="geometry" />
        </mxCell>
        <mxCell id="ycgrEBT8ILys-wkcXEi8-49" style="edgeStyle=none;rounded=0;orthogonalLoop=1;jettySize=auto;html=1;exitX=0.5;exitY=1;exitDx=0;exitDy=0;entryX=1;entryY=0.5;entryDx=0;entryDy=0;" edge="1" parent="1" source="ycgrEBT8ILys-wkcXEi8-50" target="ycgrEBT8ILys-wkcXEi8-56">
          <mxGeometry relative="1" as="geometry" />
        </mxCell>
        <mxCell id="ycgrEBT8ILys-wkcXEi8-50" value="Billing and Payments" style="ellipse;whiteSpace=wrap;html=1;" vertex="1" parent="1">
          <mxGeometry x="561.87" y="359.9999999999999" width="125" height="45" as="geometry" />
        </mxCell>
        <mxCell id="ycgrEBT8ILys-wkcXEi8-51" value="Pet&#39;s Diet/Snacks" style="ellipse;whiteSpace=wrap;html=1;" vertex="1" parent="1">
          <mxGeometry x="571.87" y="75" width="125" height="45" as="geometry" />
        </mxCell>
        <mxCell id="ycgrEBT8ILys-wkcXEi8-52" style="edgeStyle=orthogonalEdgeStyle;rounded=0;orthogonalLoop=1;jettySize=auto;html=1;exitX=0;exitY=0.5;exitDx=0;exitDy=0;entryX=1;entryY=0.5;entryDx=0;entryDy=0;" edge="1" parent="1" source="ycgrEBT8ILys-wkcXEi8-53">
          <mxGeometry relative="1" as="geometry">
            <mxPoint x="546.87" y="302.5" as="sourcePoint" />
            <mxPoint x="536.87" y="477.5" as="targetPoint" />
            <Array as="points">
              <mxPoint x="551.87" y="303" />
              <mxPoint x="551.87" y="478" />
            </Array>
          </mxGeometry>
        </mxCell>
        <mxCell id="ycgrEBT8ILys-wkcXEi8-53" value="Contact Staff" style="ellipse;whiteSpace=wrap;html=1;" vertex="1" parent="1">
          <mxGeometry x="561.87" y="280" width="125" height="45" as="geometry" />
        </mxCell>
        <mxCell id="ycgrEBT8ILys-wkcXEi8-54" style="edgeStyle=none;rounded=0;orthogonalLoop=1;jettySize=auto;html=1;exitX=0;exitY=0.5;exitDx=0;exitDy=0;entryX=1;entryY=0.5;entryDx=0;entryDy=0;" edge="1" parent="1" source="ycgrEBT8ILys-wkcXEi8-55" target="ycgrEBT8ILys-wkcXEi8-56">
          <mxGeometry relative="1" as="geometry" />
        </mxCell>
        <mxCell id="ycgrEBT8ILys-wkcXEi8-55" value="Contact Client" style="ellipse;whiteSpace=wrap;html=1;" vertex="1" parent="1">
          <mxGeometry x="564.37" y="540" width="120" height="42.5" as="geometry" />
        </mxCell>
        <mxCell id="ycgrEBT8ILys-wkcXEi8-56" value="Bookings and Reservations" style="ellipse;whiteSpace=wrap;html=1;" vertex="1" parent="1">
          <mxGeometry x="411.87" y="510" width="125" height="45" as="geometry" />
        </mxCell>
        <mxCell id="ycgrEBT8ILys-wkcXEi8-57" style="edgeStyle=none;rounded=0;orthogonalLoop=1;jettySize=auto;html=1;exitX=1;exitY=0.5;exitDx=0;exitDy=0;entryX=0.5;entryY=1;entryDx=0;entryDy=0;" edge="1" parent="1" source="ycgrEBT8ILys-wkcXEi8-58" target="ycgrEBT8ILys-wkcXEi8-51">
          <mxGeometry relative="1" as="geometry" />
        </mxCell>
        <mxCell id="ycgrEBT8ILys-wkcXEi8-58" value="Manage Pet Health" style="ellipse;whiteSpace=wrap;html=1;" vertex="1" parent="1">
          <mxGeometry x="424.37" y="210" width="120" height="60" as="geometry" />
        </mxCell>
        <mxCell id="ycgrEBT8ILys-wkcXEi8-59" value="Manage Pet Activity" style="ellipse;whiteSpace=wrap;html=1;" vertex="1" parent="1">
          <mxGeometry x="419.37" y="75" width="120" height="60" as="geometry" />
        </mxCell>
        <mxCell id="ycgrEBT8ILys-wkcXEi8-60" value="Change Client Contact Info" style="ellipse;whiteSpace=wrap;html=1;" vertex="1" parent="1">
          <mxGeometry x="419.37" y="148.75" width="130" height="50" as="geometry" />
        </mxCell>
        <mxCell id="ycgrEBT8ILys-wkcXEi8-61" value="Change Resort Info" style="ellipse;whiteSpace=wrap;html=1;" vertex="1" parent="1">
          <mxGeometry x="409.37" y="455" width="130" height="45" as="geometry" />
        </mxCell>
        <mxCell id="ycgrEBT8ILys-wkcXEi8-62" value="Manage Inventory and Supplies&amp;nbsp;" style="ellipse;whiteSpace=wrap;html=1;" vertex="1" parent="1">
          <mxGeometry x="414.37" y="345" width="120" height="45" as="geometry" />
        </mxCell>
        <mxCell id="ycgrEBT8ILys-wkcXEi8-63" style="edgeStyle=orthogonalEdgeStyle;rounded=0;orthogonalLoop=1;jettySize=auto;html=1;exitX=1;exitY=0.5;exitDx=0;exitDy=0;entryX=0.5;entryY=1;entryDx=0;entryDy=0;" edge="1" parent="1" source="ycgrEBT8ILys-wkcXEi8-64" target="ycgrEBT8ILys-wkcXEi8-51">
          <mxGeometry relative="1" as="geometry">
            <Array as="points">
              <mxPoint x="541.87" y="427" />
              <mxPoint x="541.87" y="260" />
              <mxPoint x="634.87" y="260" />
            </Array>
          </mxGeometry>
        </mxCell>
        <mxCell id="ycgrEBT8ILys-wkcXEi8-64" value="Manage Donations&amp;nbsp;" style="ellipse;whiteSpace=wrap;html=1;" vertex="1" parent="1">
          <mxGeometry x="414.37" y="405" width="120" height="45" as="geometry" />
        </mxCell>
        <mxCell id="ycgrEBT8ILys-wkcXEi8-65" value="&lt;font style=&quot;font-size: 9px;&quot;&gt;includes&lt;/font&gt;" style="text;html=1;align=center;verticalAlign=middle;whiteSpace=wrap;rounded=0;" vertex="1" parent="1">
          <mxGeometry x="581.87" y="455" width="50" height="30" as="geometry" />
        </mxCell>
        <mxCell id="ycgrEBT8ILys-wkcXEi8-66" value="&lt;font style=&quot;font-size: 9px;&quot;&gt;includes&lt;/font&gt;" style="text;html=1;align=center;verticalAlign=middle;whiteSpace=wrap;rounded=0;" vertex="1" parent="1">
          <mxGeometry x="549.37" y="517.5" width="50" height="30" as="geometry" />
        </mxCell>
        <mxCell id="ycgrEBT8ILys-wkcXEi8-67" value="&lt;font style=&quot;font-size: 9px;&quot;&gt;includes&lt;/font&gt;" style="text;html=1;align=center;verticalAlign=middle;whiteSpace=wrap;rounded=0;" vertex="1" parent="1">
          <mxGeometry x="561.87" y="140" width="50" height="30" as="geometry" />
        </mxCell>
        <mxCell id="ycgrEBT8ILys-wkcXEi8-68" value="&lt;font style=&quot;font-size: 9px;&quot;&gt;includes&lt;/font&gt;" style="text;html=1;align=center;verticalAlign=middle;whiteSpace=wrap;rounded=0;" vertex="1" parent="1">
          <mxGeometry x="549.37" y="330" width="50" height="30" as="geometry" />
        </mxCell>
        <mxCell id="ycgrEBT8ILys-wkcXEi8-69" value="&lt;font style=&quot;font-size: 9px;&quot;&gt;extends&lt;/font&gt;" style="text;html=1;align=center;verticalAlign=middle;whiteSpace=wrap;rounded=0;" vertex="1" parent="1">
          <mxGeometry x="634.37" y="210" width="50" height="30" as="geometry" />
        </mxCell>
      </root>
    </mxGraphModel>
  </diagram>
</mxfile>
